<svg xmlns="http://www.w3.org/2000/svg" viewBox="0 0 500 500"><path d="M247.56445,330.49506H59.53125V45.24115h188.0332Zm-186.0332-2h184.0332V47.24115H61.53125Z" style="fill:#ffad9d"/><rect x="152.54785" y="46.24115" width="2" height="283.25391" style="fill:#ffad9d"/><rect x="60.53125" y="139.60834" width="186.0332" height="2" style="fill:#ffad9d"/><rect x="60.53125" y="45.24115" width="186.0332" height="2" style="fill:#ffad9d"/><rect x="60.53125" y="233.97455" width="186.0332" height="2" style="fill:#ffad9d"/><rect x="184.99038" y="303.55328" width="196.44672" height="196.44672" style="fill:#ffe5e0"/><path d="M233.99686,186.40687c2.4336.38173,22.58106,15.46753,22.58106,15.46753s-15.80113,35.77346-24.50582,43.19185l-64.4951,9.807-.74682-7.92995c4.25135-2.11683,59.45048-24.90092,60.73387-26.30033C229.86524,218.13377,233.99686,186.40687,233.99686,186.40687Z" style="fill:#ffab9b"/><polygon points="94.281 441.411 111.629 401.813 131.488 405.078 111.518 446.338 94.281 441.411 94.281 441.411" style="fill:#ffd0c6"/><polygon points="111.056 403.12 129.195 409.815 125.801 416.828 111.056 403.12" style="fill:#ffd0c6;mix-blend-mode:multiply"/><path d="M117.54122,437.93457c.55145.59755-6.90117,10.97964-7.5705,18.86827-.31166,3.67318-5.46633,14.64844-6.60327,14.88242-1.60743.3308-11.75927-4.55307-12.30512-5.84028-.491-1.15789,1.74758-6.48936,1.74758-6.48936s-8.85327,2.70073-11.27389,2.076c-8.52045-2.199-30.37535-13.11829-31.93406-14.80394-.80757-.87335.74632-3.65093,2.00723-4.31387,6.32524-3.32555,32.80717,1.18238,37.5228-3.35443l8.2564-12.35581C103.07438,427.882,117.54122,437.93457,117.54122,437.93457Z" style="fill:#242e3c"/><polygon points="173.974 454.599 168.45 412.575 188.304 409.281 191.879 453.721 173.974 454.599 173.974 454.599" style="fill:#ffd0c6"/><path d="M193.899,451.38626s2.46706,16.33729,4.01935,21.65832c1.03238,3.53887,2.3109,13.9308,1.42162,14.67684-1.25726,1.05477-12.51052,1.58041-13.60238.70708-.98216-.78559-1.54533-6.54047-1.54533-6.54047s-6.50717,6.58263-8.934,7.18294c-8.54217,2.11307-32.96074,2.88806-35.13316,2.14533-1.12553-.38481-1.07783-3.56715-.28327-4.74954,3.98582-5.93137,29.42984-14.5462,31.42385-20.77868l-.48319-14.69777C172.62258,449.10178,191.65428,449.31068,193.899,451.38626Z" style="fill:#242e3c"/><polygon points="169.333 419.292 189.11 419.292 189.708 426.726 169.333 419.292" style="fill:#ffab9b"/><path d="M282.24614,113.39682c1.05,6.94879,1.69977,17.025,1.69977,17.025s-27.276-2.45362-29.36554-16.26384c-1.05136-6.94859,3.84463-16.36881,10.83408-17.09888C272.78971,96.28869,280.87129,104.29814,282.24614,113.39682Z" style="fill:#ff5322"/><path d="M181.9815,301.76737,137.22856,412.74978l-30.1617-11.09723s32.1939-111.7228,43.19926-122.22439c25.35182-24.19136,80.34038-16.714,100.78726-24.55457l35.86316-6.64868c4.09864,3.47861-11.41183,43.11513-11.41183,43.11513S220.36967,292.65286,181.9815,301.76737Z" style="fill:#1b232d"/><path d="M235.39609,113.97908s11.0137,37.42756,5.7704,46.92926c-4.11778,7.46206,16.89957-5.01728,16.89957-5.01728,7.16055-.10963,11.19079-13.285,6.85469-18.9845-5.06672-6.65981-5.20774-33.18935-5.20774-33.18935Z" style="fill:#ffd0c6"/><polygon points="240.939 137.436 256.424 111.868 237.571 122.074 240.939 137.436" style="fill:#ffab9b"/><path d="M236.92626,127.53973c-35.19743,8.04315-44.918-41.66876-42.38823-59.069,1.37055-9.42686,10.26486-22.31952,25.8081-25.72614l-6.10253.6878c15.91219-3.488,34.55179,6.54,38.1929,23.15181L260.53,90.48906C263.78379,109.66657,248.22918,124.95683,236.92626,127.53973Z" style="fill:#ffd0c6"/><path d="M268.24719,84.84752a9.62981,9.62981,0,1,1-11.451-7.37165A9.62981,9.62981,0,0,1,268.24719,84.84752Z" style="fill:#ffd0c6"/><path d="M195.4539,87.9998q-.17819-.55887-.34838-1.11249c-11.17506-36.34938,3.37966-55.76311,27.655-58.86189,23.298-2.974,39.94967,9.29854,42.28492,35.57215,3.01438-.22159,7.4658,1.32988,7.50157,2.064.13745,2.82061-7.62742,3.62777-7.62742,3.62777C270.123,73.529,272.89908,81.446,272.86175,83.8916c-.08214,5.38072-12.23362,2.42056-9.99188,4.96357,4.419,5.01284-2.33734,12.026-2.33734,12.026s1.45477-13.77268-12.35664-15.07061C235.176,84.58892,206.8761,77.25538,196.016,66.16626,192.38125,65.09422,195.4539,87.9998,195.4539,87.9998Z" style="fill:#ff5322;fill-rule:evenodd"/><path d="M242.654,153.48379c-10.66774,4.15859-19.89314,42.46113-19.89314,42.46113l25.41561,7.01577Z" style="fill:#1566b5"/><path d="M187.79306,303.55328l7.699,115.73913H166.16223s-34.93458-142.406-21.85682-159.47315c4.505-5.87919,97.48186-1.23923,106.748-4.94567l4.18655-15.56494,50.83387,4.55529c1.85323,6.22153,10.84838,33.09325-3.94343,48.75174C282.41947,313.48147,243.66,305.14176,187.79306,303.55328Z" style="fill:#242e3c"/><path d="M180.80859,419.34955c-.61816-5.31933-15.13183-130.34765-13.71289-136.11035,1.59668-6.498,17.25782-5.77539,37.08887-4.86133,25.5625,1.17676,57.38086,2.64453,70.69922-10.94922,4.67187-4.76855,6.77148-11.21777,6.24219-19.17089l.998-.06641c.54883,8.249-1.64648,14.957-6.52539,19.93652-13.63281,13.91309-45.69922,12.43262-71.46,11.249-18.60644-.86036-34.6709-1.59766-36.07226,4.10058-1.10059,4.47266,8.5039,90.75684,13.73632,135.75684Z" style="fill:#1b232d"/><path d="M278.48828,264.59467c-3.31836,0-7.75781-1.99512-11.65332-5.24805a25.599,25.599,0,0,1-8.751-13.376l.97266-.23047c2.44336,10.30469,13.37793,17.85449,19.43066,17.85449.06153,0,.1211-.001.18165-.00293l.02539,1C278.626,264.59369,278.55664,264.59467,278.48828,264.59467Z" style="fill:#1b232d"/><path d="M301.44629,293.49994c-.30274-.19433-7.42969-4.78808-8.31934-6.98047-2.61425-6.42871,4.22754-26.4541,4.52051-27.30371l.13477-.39257,12.29785,1.81543-.14649.99023-11.47265-1.69434c-.957,2.87012-6.69043,20.59571-4.40821,26.208.50782,1.25,4.4668,4.29,7.93457,6.51563Z" style="fill:#1b232d"/><path d="M242.654,153.48379c7.14662.63126,11.35117-14.32688,21.16519-16.04773,12.48378-2.189,30.61191,19.70224,39.40458,52.33145C313.283,227.0967,314.28628,250,314.28628,250L249.204,245.8617l1.801-37.283c-10.46284-2.91221-20.37477-13.02585-21.096-20.31141C228.99665,179.0511,242.654,153.48379,242.654,153.48379Z" style="fill:#146be0"/><path d="M241.34965,193.64277l28.156,2.6198s-9.74755,35.62769-18.45224,43.04608c-10.31447,8.79029-66.70074,12.39584-73.89934,17.02l-5.41632-9.81837c4.25134-2.11683,58.91266-20.40237,62.10367-26.3368C234.7476,218.48816,241.34965,193.64277,241.34965,193.64277Z" style="fill:#ffd0c6"/><rect x="105.104" y="254.8736" width="155.94946" height="4.94562" style="fill:#669ce9"/><rect x="105.104" y="254.8736" width="96.02246" height="4.94562" style="fill:#146be1"/><path d="M179.74268,183.59906H83.98315a3.75644,3.75644,0,0,0-3.62377,4.7558l17.6228,63.762a3.75868,3.75868,0,0,0,3.62378,2.75634h95.75976a3.75666,3.75666,0,0,0,3.623-4.75573L183.366,186.35535A3.75841,3.75841,0,0,0,179.74268,183.59906Z" style="fill:#acc7f1"/><path d="M147.51855,220.643a8.21277,8.21277,0,1,0-8.21289,8.20746A8.21011,8.21011,0,0,0,147.51855,220.643Z" style="fill:#fff"/><path d="M221.72591,109.28636a.91291.91291,0,0,0-.7142,1.30158,9.28522,9.28522,0,0,0,10.12529,5.60649c4.57781-.82675,8.07515-5.74594,7.62746-9.527a.93074.93074,0,0,0-1.19311-.84487c-1.99645.664-6.40828,2.07687-8.60355,2.53313C226.95049,108.77492,223.95438,109.04905,221.72591,109.28636Z" style="fill:#ffab9b"/><path d="M382.4375,156.416a44.54785,44.54785,0,1,1,44.54785-44.54785A44.59868,44.59868,0,0,1,382.4375,156.416Zm0-87.0957a42.54785,42.54785,0,1,0,42.54785,42.54785A42.59607,42.59607,0,0,0,382.4375,69.32026Z" style="fill:#ffad9d"/><path d="M381.4375,113.11811V81.15619a1,1,0,1,1,2,0v29.46192l21.83594-4.91016a1,1,0,0,1,.43945,1.95117Z" style="fill:#ffad9d"/><path d="M436.15332,497.71381H368.8291l-.293-.293c-8.58593-8.585-14.06543-34.002-14.06543-47.72754a47.7059,47.7059,0,0,1,14.06543-33.95605l.30078-.30078.42481.00781c.20312.00391,20.40332.38379,33.22949.38379s33.02637-.37988,33.22949-.38379l.42481-.00781.30078.30078a47.7059,47.7059,0,0,1,14.06543,33.95605c0,13.72559-5.47949,39.14258-14.06543,47.72754Zm-66.48828-2h65.65234c7.94336-8.39941,13.19434-33.10254,13.19434-46.02051a45.71209,45.71209,0,0,0-13.18164-32.24121c-2.999.05469-21.0332.376-32.83887.376s-29.83984-.32129-32.83887-.376A45.71209,45.71209,0,0,0,356.4707,449.6933C356.4707,462.61127,361.72168,487.3144,369.665,495.71381Z" style="fill:#ffad9d"/><path d="M446.04,432.94037H358.94238a1,1,0,0,1,0-2H446.04a1,1,0,0,1,0,2Z" style="fill:#ffad9d"/><path d="M382.10645,417.44428a.99968.99968,0,0,1-.97168-.76856c-.93067-3.91015-22.60157-96.07519-5.21387-123.55566,2.5791-4.07715,5.93652-6.57812,9.97754-7.43457a14.53958,14.53958,0,0,1,13.418,3.54395c9.915,8.96875,14.97754,33.1621,15.04687,71.90722.05176,28.69824-2.7959,55.15235-2.82422,55.416a1,1,0,1,1-1.98828-.2168c.11426-1.04785,11.16211-105.05566-11.57617-125.623a12.47194,12.47194,0,0,0-11.66211-3.07031c-3.49316.74024-6.4209,2.94238-8.70215,6.54688-6.97265,11.0205-8.249,35.5791-3.69238,71.02246,3.459,26.90332,9.10547,50.76269,9.16211,51.001a1.00052,1.00052,0,0,1-.97363,1.23145Z" style="fill:#ffad9d"/><path d="M413.81348,372.48627a.99987.99987,0,0,1-.21289-1.97656c.28222-.0625,28.34277-6.333,34.749-18.49609a10.296,10.296,0,0,0,.39355-9.15137c-1.792-4.416-4.23535-6.93262-7.26171-7.48047-7.6875-1.39551-17.60352,9.40332-21.84375,14.01172l-.48633.52832c-.65625.71094-2.4043,2.60742-4.26758,1.96289-1.61817-.55469-2.5332-2.71-2.87891-6.78223a.99956.99956,0,0,1,.91114-1.08105.98863.98863,0,0,1,1.08105.91113c.38574,4.53906,1.41895,5.02051,1.53613,5.06055.23535.08008.8291.002,2.14942-1.42871l.4834-.52442c4.46289-4.85058,14.90918-16.208,23.67187-14.627,3.74512.67871,6.69238,3.60449,8.75879,8.69726a12.3495,12.3495,0,0,1-.47754,10.83692c-6.84082,12.98242-34.89941,19.25488-36.09082,19.51562A1.01169,1.01169,0,0,1,413.81348,372.48627Z" style="fill:#ffad9d"/><path d="M389.6543,417.44428a.99958.99958,0,0,1-.99121-.875c-.6084-4.835-14.79395-118.541-4.91016-129.74707a3.08925,3.08925,0,0,1,2.35254-1.1582,5.94416,5.94416,0,0,1,4.30176,2.03613c15.03418,15.51074,11.82422,124.1582,11.67968,128.77539a1.02039,1.02039,0,0,1-1.03027.96875,1.00034,1.00034,0,0,1-.96777-1.03125c.03418-1.12207,3.332-112.41309-11.11719-127.32031a3.98136,3.98136,0,0,0-2.86621-1.42871,1.10687,1.10687,0,0,0-.85254.48046c-2.15918,2.44825-5.13574,14.51954-.81445,67.86231,2.4707,30.49121,6.17187,60.01758,6.209,60.3125a1.00014,1.00014,0,0,1-.86719,1.11719A1.10475,1.10475,0,0,1,389.6543,417.44428Z" style="fill:#ffad9d"/><path d="M413.81445,366.57416a1.00006,1.00006,0,0,1-.36133-1.93262c14.6377-5.668,36.89356-17.17285,34.30372-23.915a1.84614,1.84614,0,0,0-1.26661-1.293c-3.39746-.91309-11.73632,5.64843-18.42187,10.94043-7.34961,5.81738-11.98926,9.376-14.71875,9.00976a.99968.99968,0,1,1,.25977-1.98242c2.01367.25488,7.97167-4.44238,13.21777-8.59473,7.7666-6.14843,15.78613-12.498,20.1914-11.30175a3.84846,3.84846,0,0,1,2.60547,2.50488c4.15137,10.80664-31.38281,24.92285-35.44824,26.49707A1.00234,1.00234,0,0,1,413.81445,366.57416Z" style="fill:#ffad9d"/></svg>